<?xml version="1.0" standalone="no"?>
<!DOCTYPE svg PUBLIC "-//W3C//DTD SVG 20010904//EN"
 "http://www.w3.org/TR/2001/REC-SVG-20010904/DTD/svg10.dtd">
<svg version="1.0" xmlns="http://www.w3.org/2000/svg"
 width="200.000000pt" height="200.000000pt" viewBox="0 0 200.000000 200.000000"
 preserveAspectRatio="xMidYMid meet">
<metadata>
Created by potrace 1.14, written by Peter Selinger 2001-2017
</metadata>
<g transform="translate(0.000000,200.000000) scale(0.100000,-0.100000)"
fill="#000000" stroke="none">
<path d="M1625 1965 c-286 -57 -360 -74 -352 -81 3 -3 63 6 134 19 70 14 180
35 243 47 63 11 147 27 185 34 l70 14 -55 0 c-30 0 -131 -15 -225 -33z"/>
<path d="M1940 1988 c-127 -26 -492 -96 -567 -109 -61 -10 -72 -15 -70 -30 7
-40 54 -49 68 -12 10 27 6 26 129 47 52 9 182 32 289 51 107 19 198 35 203 35
4 0 8 7 8 15 0 8 -3 14 -7 14 -5 -1 -28 -6 -53 -11z m-580 -138 c0 -5 -5 -10
-11 -10 -5 0 -7 5 -4 10 3 6 8 10 11 10 2 0 4 -4 4 -10z"/>
<path d="M950 1930 c0 -5 9 -10 21 -10 11 0 17 5 14 10 -3 6 -13 10 -21 10 -8
0 -14 -4 -14 -10z"/>
<path d="M1714 1825 l-52 -26 -1 -296 c-1 -246 -3 -300 -16 -319 -19 -29 -19
-34 0 -34 8 0 15 -4 15 -10 0 -5 -7 -10 -15 -10 -8 0 -15 5 -15 10 0 6 -12 10
-26 10 -20 0 -24 4 -20 18 13 39 24 387 13 398 -2 2 -7 -60 -11 -138 -4 -79
-8 -147 -9 -153 -2 -11 -44 -35 -63 -35 -24 0 -15 -17 11 -22 16 -3 25 -1 25
7 0 7 7 15 15 19 12 4 15 -3 15 -30 0 -28 -4 -34 -17 -32 -12 2 -19 -4 -21
-20 -2 -12 -8 -20 -13 -16 -5 3 -9 2 -8 -3 1 -4 1 -14 0 -22 -1 -11 -4 -11
-18 0 -12 10 -14 10 -9 1 4 -7 1 -15 -8 -18 -9 -4 -16 -18 -16 -34 0 -20 -6
-31 -20 -35 -15 -5 -19 -12 -15 -26 5 -14 3 -17 -9 -13 -23 9 -20 -14 4 -28
21 -13 28 -48 10 -48 -5 0 -10 -4 -10 -9 0 -5 21 -13 47 -17 43 -8 48 -13 74
-63 16 -30 26 -58 23 -62 -3 -5 -31 10 -62 33 -31 23 -59 44 -62 46 -2 2 2 7
10 12 11 7 7 10 -16 10 -18 0 -38 8 -49 20 -10 11 -23 20 -30 20 -12 0 -30
-45 -40 -105 -8 -48 -26 -83 -57 -112 l-23 -22 0 24 c0 13 3 21 8 18 4 -2 7 5
7 16 0 12 9 30 20 41 29 29 28 124 -2 185 -18 37 -29 47 -61 56 -21 5 -41 17
-44 25 -4 12 -14 14 -40 9 -24 -4 -33 -3 -28 4 3 6 21 11 38 12 18 0 26 3 19
6 -10 4 -9 8 5 19 16 12 15 13 -14 14 -17 0 -35 4 -38 10 -3 6 1 7 9 4 26 -10
76 18 76 43 0 13 -5 23 -11 23 -8 0 -7 5 2 16 9 11 22 14 43 10 24 -5 34 -2
44 14 11 19 10 20 -10 15 -13 -3 -32 1 -43 9 -25 18 -14 31 14 16 18 -9 21 -8
21 10 0 34 44 23 48 -12 3 -27 3 -27 23 -7 23 23 49 25 49 3 0 -10 6 -14 15
-10 17 6 20 -5 4 -21 -14 -14 -1 -83 16 -83 6 0 20 9 30 20 14 15 16 29 11 60
-6 39 8 58 17 23 3 -10 5 -2 6 18 1 48 -6 52 -46 28 -19 -12 -36 -19 -39 -16
-3 3 4 25 15 50 19 42 20 52 9 121 -11 72 -27 102 -29 54 -1 -19 -2 -18 -10 6
-4 17 -6 32 -4 35 3 2 5 -1 5 -9 0 -10 3 -10 14 0 15 12 11 39 -8 52 -6 4 -14
2 -19 -5 -6 -8 -7 -3 -4 11 4 18 -8 36 -55 83 -34 33 -65 58 -71 56 -5 -1 -3
-9 4 -17 25 -25 59 -72 59 -80 0 -4 -10 -10 -22 -13 -15 -4 -26 0 -36 14 -8
11 -19 18 -25 16 -7 -2 -20 2 -30 11 -21 19 -35 8 -17 -13 7 -9 10 -18 6 -22
-3 -3 -24 13 -46 36 -38 40 -40 41 -40 16 0 -14 -4 -25 -10 -25 -5 0 -10 9
-10 20 0 10 -5 31 -12 45 -14 30 -48 34 -48 5 0 -11 6 -20 14 -20 13 0 31 -58
21 -68 -3 -3 -5 0 -5 7 0 7 -12 28 -26 46 -17 23 -24 41 -19 55 4 13 2 20 -7
20 -23 0 15 20 38 20 15 0 26 -10 34 -30 7 -16 16 -27 21 -24 5 3 5 12 0 22
-5 9 -12 24 -14 33 -8 24 -58 34 -69 15 -5 -9 -16 -16 -25 -16 -10 0 -13 -5
-8 -17 7 -20 8 -23 6 -40 0 -7 -7 -10 -14 -7 -7 2 -23 -5 -35 -16 -18 -17 -22
-18 -22 -5 0 9 -5 13 -10 10 -6 -3 -10 5 -10 18 0 14 -7 28 -16 31 -24 9 -31
7 -14 -5 13 -9 12 -12 -4 -22 -11 -7 -28 -20 -38 -29 -17 -17 -18 -17 -18 5 0
13 -8 32 -19 41 -17 15 -19 16 -25 1 -3 -10 3 -28 14 -42 11 -15 18 -28 15
-31 -3 -3 -11 3 -19 13 -12 17 -15 16 -39 -17 -15 -19 -27 -37 -27 -40 0 -10
40 -16 46 -7 9 15 24 10 18 -6 -4 -8 -10 -15 -16 -15 -5 0 -29 -13 -52 -30
-47 -31 -63 -71 -47 -114 16 -40 40 -40 78 -1 38 39 54 45 46 16 -4 -15 3 -23
31 -35 32 -13 52 -13 159 -2 67 7 139 21 159 30 20 9 45 13 54 9 11 -4 22 1
31 13 14 18 15 18 8 -3 -8 -30 15 -31 53 -3 15 11 39 23 54 25 29 6 28 8 44
-125 3 -30 12 -58 18 -62 7 -5 5 -13 -8 -25 -10 -10 -16 -13 -12 -6 7 13 -72
23 -199 26 -88 1 -151 -7 -170 -23 -7 -6 -54 -10 -111 -8 -91 1 -159 -10 -189
-32 -21 -15 -65 -18 -65 -4 0 8 -3 14 -7 14 -5 0 -6 22 -5 50 3 32 0 50 -7 50
-14 0 -15 126 -1 135 6 3 10 15 10 25 0 14 -5 18 -16 13 -14 -5 -16 -2 -10 21
4 17 3 25 -3 22 -5 -4 -8 -66 -7 -151 l2 -145 -21 20 c-12 11 -42 24 -68 29
-44 8 -47 7 -47 -13 0 -11 9 -36 20 -54 11 -18 20 -39 20 -46 0 -7 7 -19 15
-26 8 -7 12 -16 10 -21 -3 -4 3 -17 13 -27 10 -10 17 -23 15 -29 -2 -6 1 -14
6 -18 12 -7 15 -66 4 -63 -5 2 -19 -5 -32 -14 -22 -15 -23 -20 -13 -43 8 -16
23 -28 42 -31 30 -7 42 -24 16 -24 -7 0 -19 -6 -25 -13 -8 -10 -5 -19 10 -36
18 -19 19 -27 11 -46 -11 -25 -5 -36 29 -48 19 -6 32 -67 14 -67 -6 0 -35 -15
-65 -34 -36 -23 -59 -31 -66 -25 -14 11 -101 1 -134 -17 -14 -7 -54 -22 -90
-33 -56 -17 -59 -19 -25 -16 22 2 53 9 68 16 29 13 51 4 27 -11 -13 -8 -12
-10 3 -10 9 0 17 -7 17 -16 0 -8 -4 -12 -10 -9 -6 3 -7 -1 -4 -9 4 -11 0 -16
-10 -16 -9 0 -16 7 -16 15 0 8 -4 15 -10 15 -5 0 -10 -9 -10 -19 0 -18 -6 -19
-74 -14 -43 3 -76 2 -79 -4 -4 -6 13 -9 46 -7 l52 4 -32 -15 c-38 -18 -42 -25
-11 -19 22 4 22 4 -1 -6 -13 -6 -33 -8 -44 -4 -12 4 -17 2 -13 -4 3 -5 -2 -13
-12 -18 -25 -11 -72 -11 -72 1 0 6 -6 -1 -13 -15 -9 -17 -10 -27 -3 -32 7 -5
7 -8 -1 -8 -10 0 -13 -47 -13 -200 l0 -200 1000 0 1000 0 0 288 c0 287 -3 313
-34 312 -6 0 -2 -7 8 -15 28 -21 12 -18 -36 6 -23 12 -50 18 -62 15 -12 -3
-35 -1 -51 4 -28 9 -27 9 8 4 22 -3 37 -1 37 6 0 5 -6 11 -12 11 -7 1 -17 2
-23 4 -5 1 -21 3 -35 4 -22 1 -23 3 -8 12 9 5 38 8 63 5 44 -4 61 7 28 19 -10
3 -34 19 -53 35 l-35 30 30 -6 c17 -4 50 -16 74 -26 24 -10 45 -17 47 -15 6 6
-108 55 -145 62 -18 4 -29 10 -23 14 6 3 -7 6 -29 6 -22 0 -43 5 -47 11 -8 14
-82 54 -98 54 -6 0 -17 7 -24 15 -11 13 -10 14 2 10 8 -3 26 6 40 22 42 44 56
53 72 47 9 -3 14 -9 11 -13 -2 -5 9 -18 25 -30 17 -12 30 -28 30 -36 0 -9 10
-15 25 -15 21 0 25 -5 25 -30 0 -28 6 -33 85 -71 47 -22 85 -45 85 -50 0 -5 5
-9 10 -9 6 0 10 60 10 160 0 139 -2 160 -16 160 -10 0 -15 8 -14 23 6 69 -14
79 -28 15 -6 -24 -10 -35 -11 -25 -1 11 -9 17 -27 17 -22 0 -24 3 -15 14 10
11 8 16 -7 20 -11 4 -27 3 -37 0 -13 -5 -16 -4 -11 4 4 7 19 13 34 13 20 1 22
3 8 6 -18 5 -18 6 5 25 l24 20 -26 -6 c-19 -4 -29 -1 -33 10 -5 13 -9 14 -21
4 -8 -6 -23 -9 -36 -5 -14 5 -19 3 -15 -3 3 -6 2 -13 -4 -17 -5 -3 -10 -11
-10 -16 0 -6 5 -7 10 -4 14 9 52 -4 45 -16 -4 -5 -17 -9 -30 -9 -13 0 -30 -7
-39 -15 -11 -11 -17 -12 -22 -3 -4 6 -2 14 4 16 7 2 12 8 12 14 0 6 -6 8 -14
5 -8 -3 -17 1 -20 9 -9 24 -8 25 22 18 20 -5 24 -4 16 5 -6 7 -24 13 -40 15
-19 1 -28 7 -26 17 2 8 4 47 4 87 -1 67 1 72 21 72 13 0 33 -14 50 -35 26 -32
27 -37 16 -79 -8 -31 -15 -43 -25 -39 -8 3 -14 0 -14 -6 0 -17 25 -13 42 7 19
22 30 52 19 52 -5 0 -7 9 -4 21 4 14 -4 31 -28 55 l-33 34 90 0 c105 0 135 6
127 26 -3 8 -13 14 -22 14 -11 0 -12 -3 -4 -8 7 -4 -30 -8 -83 -9 -52 -1 -103
-4 -113 -8 -17 -5 -19 2 -20 102 -1 59 1 159 5 221 l7 113 44 25 c33 20 58 26
104 27 78 0 53 18 -35 24 -51 4 -69 0 -112 -22z m-35 -205 c-4 -15 -7 9 -7 60
1 83 1 84 8 25 3 -33 3 -71 -1 -85z m-941 40 c-14 -22 -24 -19 -15 5 4 8 11
15 17 15 6 0 6 -7 -2 -20z m-238 -390 c6 -10 6 -21 2 -24 -4 -3 -13 8 -19 25
-12 31 0 31 17 -1z m85 -44 c0 -29 4 -40 17 -41 9 -2 18 6 21 17 3 11 10 17
16 14 5 -4 12 -2 16 4 8 12 92 13 99 1 3 -5 -5 -16 -19 -25 -30 -20 -33 -36
-5 -29 23 6 63 -28 41 -35 -8 -3 2 -12 25 -23 42 -20 68 -24 60 -10 -3 5 3 11
13 14 14 3 17 0 14 -13 -5 -19 -55 -40 -104 -41 -33 -1 -32 -2 10 -10 76 -15
135 36 148 126 4 33 9 43 15 33 8 -10 11 -10 15 0 2 7 17 -11 31 -40 14 -29
33 -60 41 -70 17 -20 51 -24 51 -6 0 6 3 8 6 5 4 -4 0 -17 -9 -30 -9 -14 -12
-28 -7 -33 4 -5 10 -20 12 -33 3 -23 0 -24 -55 -26 -31 0 -62 -6 -68 -12 -8
-8 -20 -8 -36 -2 -17 6 -30 6 -39 -2 -15 -12 -20 -4 -26 40 l-3 23 -25 -25
c-73 -72 -75 -76 -72 -141 2 -47 0 -58 -8 -46 -10 13 -11 13 -7 0 2 -9 14 -14
28 -12 13 1 19 -1 13 -5 -6 -5 -10 -26 -9 -48 5 -65 7 -71 15 -45 7 23 8 23 9
3 3 -60 -47 -22 -92 71 l-24 48 -13 -33 c-7 -19 -13 -43 -14 -54 0 -11 -7 -19
-13 -17 -7 1 -13 -3 -13 -10 0 -6 -2 -9 -5 -6 -10 9 7 38 18 31 6 -4 8 0 4 9
-3 9 3 33 15 53 17 33 18 44 8 84 -15 66 -31 102 -41 95 -29 -18 -90 111 -106
223 -7 55 1 75 29 71 19 -2 23 -9 23 -42z m348 37 c-7 -2 -19 -2 -25 0 -7 3
-2 5 12 5 14 0 19 -2 13 -5z m647 -148 c0 -33 -20 -74 -34 -69 -6 2 -17 -9
-23 -26 -13 -35 -33 -40 -33 -9 0 14 5 19 14 16 10 -4 12 0 9 14 -3 10 -9 19
-14 19 -5 0 -9 7 -9 15 0 14 17 20 46 16 7 -1 14 6 18 14 4 11 2 14 -7 9 -8
-5 -7 -2 2 9 19 24 31 21 31 -8z m-490 5 c0 -5 -7 -10 -16 -10 -8 0 -12 5 -9
10 3 6 10 10 16 10 5 0 9 -4 9 -10z m600 -9 c0 -14 -39 -57 -40 -43 0 6 5 12
10 12 6 0 10 9 10 20 0 11 5 20 10 20 6 0 10 -4 10 -9z m-65 -11 c-3 -5 -11
-10 -16 -10 -6 0 -7 5 -4 10 3 6 11 10 16 10 6 0 7 -4 4 -10z m-33 -45 c3 -14
1 -28 -3 -31 -5 -3 -9 9 -9 25 0 38 6 40 12 6z m38 4 c0 -5 -7 -9 -15 -9 -15
0 -20 12 -9 23 8 8 24 -1 24 -14z m84 -15 c5 -13 2 -15 -14 -11 -11 3 -20 1
-20 -5 0 -5 -5 -6 -12 -2 -7 5 -5 11 7 21 24 17 32 17 39 -3z m126 -19 c-7 -8
-17 -15 -23 -15 -6 0 -2 7 9 15 25 19 30 19 14 0z m-365 -15 c3 -5 1 -10 -4
-10 -6 0 -11 5 -11 10 0 6 2 10 4 10 3 0 8 -4 11 -10z m280 0 c-27 -12 -35
-12 -35 0 0 6 12 10 28 9 24 0 25 -1 7 -9z m-1195 -15 c0 -8 -7 -15 -15 -15
-8 0 -15 7 -15 15 0 8 7 15 15 15 8 0 15 -7 15 -15z m1000 5 c0 -5 -7 -10 -16
-10 -8 0 -12 5 -9 10 3 6 10 10 16 10 5 0 9 -4 9 -10z m248 -9 c8 -5 12 -22
10 -42 -2 -29 -7 -34 -30 -37 -26 -3 -28 -1 -28 36 0 51 15 64 48 43z m-318
-11 c0 -5 -4 -10 -10 -10 -5 0 -10 5 -10 10 0 6 5 10 10 10 6 0 10 -4 10 -10z
m50 -34 c0 -2 -7 -6 -15 -10 -8 -3 -15 -1 -15 4 0 6 7 10 15 10 8 0 15 -2 15
-4z m-657 -31 c-3 -8 -9 -15 -14 -15 -10 0 -12 24 -3 33 11 11 24 -3 17 -18z
m357 -85 c0 -16 -4 -30 -8 -30 -5 0 -7 14 -4 30 2 17 6 30 8 30 2 0 4 -13 4
-30z m237 -31 c24 -11 43 -25 43 -30 0 -5 7 -9 15 -9 8 0 15 -4 15 -10 0 -14
-28 -12 -33 3 -3 9 -10 9 -31 -2 -31 -17 -42 -9 -55 37 -11 38 -10 38 46 11z
m-340 -25 c-3 -18 3 -34 23 -56 33 -36 30 -55 -8 -54 -15 0 -43 -3 -62 -8
l-35 -7 39 33 c36 32 38 35 22 51 -10 9 -14 22 -11 28 4 6 -2 13 -14 16 -29 8
-16 23 21 23 27 0 30 -3 25 -26z m-227 -3 c0 -5 3 -16 6 -25 4 -11 1 -16 -10
-16 -11 0 -3 -14 25 -42 39 -41 40 -42 18 -50 -12 -5 -31 -5 -43 -1 -12 4 -27
6 -35 4 -11 -2 -13 7 -9 37 3 21 1 46 -4 56 -5 9 -7 24 -4 32 6 15 56 20 56 5z
m849 -27 c17 -4 28 -10 25 -15 -3 -5 -2 -9 3 -9 4 -1 21 -12 38 -25 l30 -25
-30 1 c-17 1 -39 -1 -49 -3 -27 -4 -32 20 -6 30 l21 8 -23 11 c-13 6 -36 16
-53 21 -23 8 -25 11 -9 11 12 1 35 -2 53 -5z m-285 -20 c17 -7 22 -34 6 -34
-5 0 -14 9 -20 20 -12 22 -10 23 14 14z m63 -56 c-3 -8 -6 -5 -6 6 -1 11 2 17
5 13 3 -3 4 -12 1 -19z m-71 -59 c1 -16 -2 -32 -7 -35 -5 -3 -9 14 -9 37 0 47
14 45 16 -2z m-166 -51 c0 -24 -4 -37 -10 -33 -10 6 -14 -6 -11 -37 3 -22 -4
-23 -33 -1 -20 16 -21 19 -7 35 9 10 21 18 28 18 7 0 13 4 13 9 0 5 -10 7 -22
4 -20 -4 -21 -3 -5 7 9 6 17 17 17 24 0 7 7 13 15 13 11 0 15 -11 15 -39z m71
1 c-6 -24 -9 -28 -10 -12 -1 24 9 56 16 50 2 -3 0 -20 -6 -38z m574 16 c22
-13 36 -24 30 -24 -17 0 -101 48 -85 48 8 1 33 -10 55 -24z m-1534 -22 c-4
-34 -5 -35 -11 -13 -7 26 -3 50 9 50 4 0 5 -17 2 -37z m-158 -60 c-7 -2 -19
-2 -25 0 -7 3 -2 5 12 5 14 0 19 -2 13 -5z m1175 -144 c-3 -8 -7 -3 -11 10 -4
17 -3 21 5 13 5 -5 8 -16 6 -23z m-71 -71 c-3 -8 -6 -5 -6 6 -1 11 2 17 5 13
3 -3 4 -12 1 -19z"/>
<path d="M548 1223 c-3 -4 -2 -19 2 -33 l6 -25 8 24 c8 22 -7 52 -16 34z"/>
<path d="M577 1137 c-6 -16 16 -47 33 -47 9 0 10 3 1 14 -6 7 -9 21 -5 30 4
10 1 16 -9 16 -8 0 -17 -6 -20 -13z"/>
<path d="M630 1101 c0 -6 4 -13 10 -16 6 -3 7 1 4 9 -7 18 -14 21 -14 7z"/>
<path d="M750 759 c7 -11 14 -19 16 -16 7 7 -7 37 -17 37 -6 0 -5 -9 1 -21z"/>
<path d="M1080 1820 c0 -5 5 -10 11 -10 5 0 7 5 4 10 -3 6 -8 10 -11 10 -2 0
-4 -4 -4 -10z"/>
<path d="M945 1810 c-3 -5 -2 -10 4 -10 5 0 13 5 16 10 3 6 2 10 -4 10 -5 0
-13 -4 -16 -10z"/>
<path d="M1116 1797 c7 -18 39 -31 54 -22 18 11 11 23 -10 18 -11 -3 -27 0
-35 7 -13 11 -14 10 -9 -3z"/>
<path d="M1757 1784 c-19 -10 -27 -21 -23 -31 3 -8 6 -25 6 -37 0 -21 3 -22
38 -17 36 6 37 7 40 54 3 53 -9 59 -61 31z"/>
<path d="M1216 1771 c-8 -12 21 -34 34 -26 7 4 5 11 -4 21 -17 16 -23 17 -30
5z"/>
<path d="M900 1740 c0 -5 5 -10 11 -10 5 0 7 5 4 10 -3 6 -8 10 -11 10 -2 0
-4 -4 -4 -10z"/>
<path d="M1302 1720 c7 -10 14 -18 15 -16 6 6 -9 36 -18 36 -5 0 -4 -9 3 -20z"/>
<path d="M1121 1709 c7 -14 14 -18 21 -11 13 13 2 32 -18 32 -12 0 -13 -4 -3
-21z"/>
<path d="M1190 1691 c0 -6 4 -13 10 -16 6 -3 7 1 4 9 -7 18 -14 21 -14 7z"/>
<path d="M1745 1642 c-6 -4 -11 -64 -12 -134 -3 -119 -1 -128 16 -128 12 0 20
9 23 25 3 14 1 25 -3 25 -5 0 -9 32 -9 70 0 67 1 70 24 70 16 0 26 7 30 23 12
47 8 57 -26 57 -18 0 -37 -4 -43 -8z"/>
<path d="M656 1615 c-3 -8 -1 -15 4 -15 6 0 10 7 10 15 0 8 -2 15 -4 15 -2 0
-6 -7 -10 -15z"/>
<path d="M400 1575 c0 -20 22 -65 32 -65 4 0 8 18 8 40 0 33 -3 40 -20 40 -11
0 -20 -7 -20 -15z"/>
<path d="M1851 1583 c0 -5 4 -17 9 -28 7 -17 9 -17 9 -2 1 9 7 17 14 17 8 0 7
4 -3 10 -18 12 -30 13 -29 3z"/>
<path d="M13 1513 c9 -2 23 -2 30 0 6 3 -1 5 -18 5 -17 0 -22 -2 -12 -5z"/>
<path d="M1802 1420 c0 -14 2 -19 5 -12 2 6 2 18 0 25 -3 6 -5 1 -5 -13z"/>
<path d="M1870 1300 c0 -5 20 -10 45 -10 25 0 45 5 45 10 0 6 -20 10 -45 10
-25 0 -45 -4 -45 -10z"/>
<path d="M1817 1243 c-4 -3 -7 -12 -7 -20 0 -17 26 -17 33 1 8 21 -11 35 -26
19z"/>
<path d="M1882 1234 c1 -9 13 -21 26 -25 20 -8 23 -6 20 14 -2 14 -11 23 -26
25 -18 3 -23 -1 -20 -14z"/>
<path d="M0 1114 c0 -74 2 -85 16 -80 9 3 20 6 25 6 5 0 9 18 9 39 0 22 5 41
12 43 9 3 9 6 0 12 -7 4 -12 2 -12 -3 0 -6 -5 -11 -11 -11 -6 0 -8 7 -5 16 9
23 -4 64 -20 64 -11 0 -14 -19 -14 -86z"/>
<path d="M80 1084 c0 -38 3 -45 17 -42 24 4 28 35 9 57 -9 10 -13 21 -9 24 3
4 1 7 -5 7 -8 0 -12 -18 -12 -46z"/>
<path d="M320 1102 c0 -18 5 -32 10 -32 6 0 8 11 4 28 -10 39 -14 40 -14 4z"/>
<path d="M1988 1095 c-3 -14 -1 -25 3 -25 5 0 9 11 9 25 0 14 -2 25 -4 25 -2
0 -6 -11 -8 -25z"/>
<path d="M381 1103 c0 -5 4 -17 9 -28 8 -18 9 -17 9 8 1 15 -3 27 -9 27 -5 0
-10 -3 -9 -7z"/>
<path d="M131 1065 c3 -12 15 -19 37 -21 34 -4 45 10 15 19 -10 2 -26 8 -37
12 -14 6 -17 4 -15 -10z"/>
<path d="M1380 1020 c-8 -5 -11 -12 -7 -16 4 -4 13 -2 19 4 15 15 7 24 -12 12z"/>
<path d="M1390 931 c0 -10 6 -21 13 -24 10 -4 13 2 9 19 -5 28 -22 32 -22 5z"/>
<path d="M1630 862 c0 -10 65 -44 110 -57 21 -7 22 -6 9 7 -30 30 -119 67
-119 50z"/>
<path d="M0 669 l0 -190 30 18 c17 9 30 21 30 24 0 4 8 10 17 13 16 5 18 18
15 113 -1 60 -5 132 -8 161 l-5 52 -40 0 -39 0 0 -191z"/>
<path d="M1515 820 c3 -5 8 -10 11 -10 2 0 4 5 4 10 0 6 -5 10 -11 10 -5 0 -7
-4 -4 -10z"/>
<path d="M1983 650 c1 -11 5 -20 9 -20 4 0 8 9 8 20 0 11 -4 20 -9 20 -6 0 -9
-9 -8 -20z"/>
<path d="M1922 624 c10 -10 20 -16 22 -13 3 3 -5 11 -17 18 -21 13 -21 12 -5
-5z"/>
<path d="M255 570 c-8 -13 5 -13 25 0 13 8 13 10 -2 10 -9 0 -20 -4 -23 -10z"/>
</g>
</svg>
